<?xml version="1.0" encoding="UTF-8"?>
<svg id="Layer_1" data-name="Layer 1" xmlns="http://www.w3.org/2000/svg" viewBox="0 0 1920 1080">
  <defs>
    <style>
      .cls-1 {
        fill: #a5a5a5;
      }

      .cls-2 {
        fill: #bfbfbf;
      }

      .cls-3 {
        fill: #e0e0e0;
      }

      .cls-4 {
        fill: #eaeaea;
      }

      .cls-5 {
        fill: #999;
      }

      .cls-6 {
        fill: #ccc;
      }

      .cls-7 {
        fill: #b5b5b5;
      }

      .cls-8 {
        fill: #f2f2f2;
      }
    </style>
  </defs>
  <path class="cls-5" d="m1920,0v917c-191.44-112.14-405.29-259.85-629.22-328.52-397.6-121.93-842.91,0-848.22-339.29-1.53-97.9,17.69-180.79,45.8-249.19h1431.64Z"/>
  <path class="cls-1" d="m1920,0v825.01c-176.29-105.69-370.65-234.31-573.49-296.51-388.24-119.06-823.07,0-828.24-331.3-1.17-74.58,10-140.23,27.99-197.2h1373.74Z"/>
  <path class="cls-7" d="m1920,0v731.36c-160.55-97.4-335.68-208.84-517.89-264.72-374.47-114.84-793.88,0-798.87-319.55-.84-53.82,4.97-102.82,15.23-147.09h1301.53Z"/>
  <path class="cls-2" d="m1920,0v648.1c-146.33-89.14-304.32-185.66-468.22-235.92-363.91-111.6-771.48,0-776.33-310.54-.56-36.1,1.95-69.97,6.85-101.64h1237.7Z"/>
  <path class="cls-6" d="m1920,0v581.5c-135.32-82.44-281.29-171.28-432.68-217.71-338.61-103.84-717.85,0-722.37-288.94-.41-26.21.93-51.15,3.71-74.85h1151.34Z"/>
  <path class="cls-3" d="m1920,0v505.98c-122.3-74.35-253.3-151.57-388.85-193.14-322.91-99.03-684.56,0-688.87-275.55-.2-12.74.04-25.17.67-37.29h1077.05Z"/>
  <path class="cls-4" d="m1920,0v423.49c-108.19-65.53-223.54-132.06-342.72-168.61-296.88-91.04-629.39,0-633.35-253.33-.01-.52-.01-1.04-.02-1.55h976.09Z"/>
  <path class="cls-8" d="m1054.86,0h865.14v343.11c-94.54-57.05-195.02-114.13-298.73-145.94-253.99-77.89-537.02-7.4-566.41-197.17Z"/>
</svg>